<svg id="SvgjsSvg1001" width="288" height="288" xmlns="http://www.w3.org/2000/svg" version="1.1" xmlns:xlink="http://www.w3.org/1999/xlink" xmlns:svgjs="http://svgjs.com/svgjs"><defs id="SvgjsDefs1002"></defs><g id="SvgjsG1008"><svg xmlns="http://www.w3.org/2000/svg" viewBox="0 0 26 26" width="288" height="288"><path fill="#000000" d="M9.695312 12.945312C9.695312 13.542969 9.210938 14.027344 8.613281 14.027344 8.015625 14.027344 7.527344 13.542969 7.527344 12.945312 7.527344 12.347656 8.015625 11.863281 8.613281 11.863281 9.210938 11.863281 9.695312 12.347656 9.695312 12.945312zM14.027344 12.945312C14.027344 13.542969 13.542969 14.027344 12.945312 14.027344 12.347656 14.027344 11.863281 13.542969 11.863281 12.945312 11.863281 12.347656 12.347656 11.863281 12.945312 11.863281 13.542969 11.863281 14.027344 12.347656 14.027344 12.945312zM18.363281 12.945312C18.363281 13.542969 17.878906 14.027344 17.277344 14.027344 16.679688 14.027344 16.195312 13.542969 16.195312 12.945312 16.195312 12.347656 16.679688 11.863281 17.277344 11.863281 17.878906 11.863281 18.363281 12.347656 18.363281 12.945312zM18.363281 12.945312" class="color877eff svgShape"></path><path fill="#000000" fill-rule="evenodd" d="M 24.589844 12.945312 C 24.589844 6.515625 19.378906 1.300781 12.945312 1.300781 C 6.515625 1.300781 1.300781 6.515625 1.300781 12.945312 C 1.300781 14.808594 1.738281 16.570312 2.515625 18.132812 C 2.632812 18.363281 2.65625 18.601562 2.601562 18.804688 L 1.957031 21.214844 C 1.515625 22.867188 3.027344 24.375 4.675781 23.933594 L 7.089844 23.289062 C 7.289062 23.234375 7.527344 23.261719 7.761719 23.375 C 9.324219 24.152344 11.085938 24.589844 12.945312 24.589844 C 19.378906 24.589844 24.589844 19.378906 24.589844 12.945312 Z M 12.945312 2.925781 C 18.480469 2.925781 22.964844 7.410156 22.964844 12.945312 C 22.964844 18.480469 18.480469 22.964844 12.945312 22.964844 C 11.339844 22.964844 9.828125 22.589844 8.484375 21.921875 C 7.945312 21.652344 7.300781 21.550781 6.667969 21.71875 L 4.257812 22.363281 C 3.8125 22.484375 3.410156 22.078125 3.527344 21.632812 L 4.171875 19.222656 C 4.34375 18.589844 4.238281 17.945312 3.96875 17.40625 C 3.300781 16.066406 2.925781 14.550781 2.925781 12.945312 C 2.925781 7.410156 7.410156 2.925781 12.945312 2.925781 Z M 12.945312 2.925781 " class="color877eff svgShape"></path></svg></g></svg>