<?xml version="1.0" encoding="UTF-8"?>
<svg xmlns="http://www.w3.org/2000/svg" xmlns:xlink="http://www.w3.org/1999/xlink" width="20px" height="20px" viewBox="0 0 20 20" version="1.1">
<g id="surface1">
<path style=" stroke:none;fill-rule:nonzero;fill:rgb(53.333336%,48.627451%,98.823529%);fill-opacity:1;" d="M 18.632812 16.347656 C 16.503906 15.386719 16.425781 11.269531 16.421875 11.164062 L 16.421875 8.402344 C 16.421875 5.742188 14.796875 3.453125 12.488281 2.480469 C 12.484375 1.109375 11.367188 0 10 0 C 8.632812 0 7.515625 1.109375 7.511719 2.480469 C 5.203125 3.453125 3.578125 5.738281 3.578125 8.402344 L 3.578125 11.164062 C 3.574219 11.269531 3.496094 15.386719 1.367188 16.347656 C 1.125 16.457031 0.992188 16.722656 1.050781 16.980469 C 1.105469 17.242188 1.335938 17.425781 1.601562 17.425781 L 6.988281 17.425781 C 7.101562 18.035156 7.386719 18.597656 7.828125 19.058594 C 8.410156 19.664062 9.183594 20 10 20 C 10.816406 20 11.589844 19.664062 12.171875 19.058594 C 12.613281 18.597656 12.898438 18.035156 13.011719 17.425781 L 18.398438 17.425781 C 18.664062 17.425781 18.894531 17.242188 18.949219 16.980469 C 19.007812 16.722656 18.875 16.457031 18.632812 16.347656 M 15.832031 14.375 C 16.054688 15.050781 16.371094 15.730469 16.820312 16.296875 L 3.179688 16.296875 C 3.628906 15.730469 3.945312 15.050781 4.167969 14.375 Z M 10 1.128906 C 10.621094 1.128906 11.144531 1.542969 11.304688 2.109375 C 10.882812 2.023438 10.449219 1.976562 10 1.976562 C 9.550781 1.976562 9.117188 2.023438 8.695312 2.109375 C 8.859375 1.542969 9.382812 1.128906 10 1.128906 M 4.703125 11.167969 L 4.703125 8.398438 C 4.703125 5.480469 7.082031 3.105469 10 3.105469 C 12.917969 3.105469 15.296875 5.480469 15.296875 8.398438 L 15.296875 11.171875 C 15.296875 11.257812 15.308594 12.148438 15.535156 13.246094 L 4.464844 13.246094 C 4.691406 12.148438 4.703125 11.253906 4.703125 11.167969 M 10 18.871094 C 9.140625 18.871094 8.386719 18.25 8.148438 17.425781 L 11.851562 17.425781 C 11.613281 18.25 10.859375 18.871094 10 18.871094 "/>
<path style=" stroke:none;fill-rule:nonzero;fill:rgb(53.333336%,48.627451%,98.823529%);fill-opacity:1;" d="M 10 3.898438 C 7.574219 3.898438 5.597656 5.871094 5.597656 8.296875 C 5.597656 8.609375 5.851562 8.859375 6.164062 8.859375 C 6.476562 8.859375 6.726562 8.609375 6.726562 8.296875 C 6.726562 6.492188 8.195312 5.023438 10 5.023438 C 10.3125 5.023438 10.5625 4.773438 10.5625 4.460938 C 10.5625 4.148438 10.3125 3.898438 10 3.898438 "/>
</g>
</svg>
